<svg xmlns="http://www.w3.org/2000/svg" xmlns:xlink="http://www.w3.org/1999/xlink" width="1080" zoomAndPan="magnify" viewBox="0 0 810 809.999993" height="1080" preserveAspectRatio="xMidYMid meet" version="1.0"><defs><clipPath id="id1"><path d="M 81 80.949219 L 729.042969 80.949219 L 729.042969 728.996094 L 81 728.996094 Z M 81 80.949219 " clip-rule="nonzero"/></clipPath><clipPath id="id2"><path d="M 349 478 L 461 478 L 461 591 L 349 591 Z M 349 478 " clip-rule="nonzero"/></clipPath><clipPath id="id3"><path d="M 149.949219 357.804688 L 405.148438 102.605469 L 660.347656 357.804688 L 405.148438 613.003906 Z M 149.949219 357.804688 " clip-rule="nonzero"/></clipPath><clipPath id="id4"><path d="M 149.949219 357.804688 L 405.148438 102.605469 L 660.347656 357.804688 L 405.148438 613.003906 Z M 149.949219 357.804688 " clip-rule="nonzero"/></clipPath><clipPath id="id5"><path d="M 228 363 L 582 363 L 582 476 L 228 476 Z M 228 363 " clip-rule="nonzero"/></clipPath><clipPath id="id6"><path d="M 149.949219 357.804688 L 405.148438 102.605469 L 660.347656 357.804688 L 405.148438 613.003906 Z M 149.949219 357.804688 " clip-rule="nonzero"/></clipPath><clipPath id="id7"><path d="M 149.949219 357.804688 L 405.148438 102.605469 L 660.347656 357.804688 L 405.148438 613.003906 Z M 149.949219 357.804688 " clip-rule="nonzero"/></clipPath><clipPath id="id8"><path d="M 149 252 L 661 252 L 661 398 L 149 398 Z M 149 252 " clip-rule="nonzero"/></clipPath><clipPath id="id9"><path d="M 149.949219 357.804688 L 405.148438 102.605469 L 660.347656 357.804688 L 405.148438 613.003906 Z M 149.949219 357.804688 " clip-rule="nonzero"/></clipPath><clipPath id="id10"><path d="M 149.949219 357.804688 L 405.148438 102.605469 L 660.347656 357.804688 L 405.148438 613.003906 Z M 149.949219 357.804688 " clip-rule="nonzero"/></clipPath></defs><g clip-path="url(#id1)"><path fill="rgb(100%, 100%, 100%)" d="M 113.402344 404.972656 C 113.402344 244.160156 244.210938 113.351562 405.023438 113.351562 C 565.835938 113.351562 696.640625 244.160156 696.640625 404.972656 C 696.640625 565.785156 565.835938 696.59375 405.023438 696.59375 C 244.210938 696.59375 113.402344 565.785156 113.402344 404.972656 M 81 404.972656 C 81 583.929688 226.066406 728.996094 405.023438 728.996094 C 583.980469 728.996094 729.042969 583.929688 729.042969 404.972656 C 729.042969 226.015625 583.980469 80.949219 405.023438 80.949219 C 226.066406 80.949219 81 226.015625 81 404.972656 Z M 81 404.972656 " fill-opacity="1" fill-rule="nonzero"/></g><g clip-path="url(#id2)"><g clip-path="url(#id3)"><g clip-path="url(#id4)"><path fill="rgb(100%, 100%, 100%)" d="M 444.410156 495.21875 C 445.695312 496.503906 446.914062 497.851562 448.070312 499.257812 C 449.222656 500.664062 450.304688 502.121094 451.3125 503.632812 C 452.324219 505.144531 453.257812 506.703125 454.117188 508.308594 C 454.972656 509.910156 455.75 511.550781 456.445312 513.234375 C 457.140625 514.914062 457.753906 516.621094 458.28125 518.363281 C 458.808594 520.101562 459.25 521.863281 459.605469 523.648438 C 459.960938 525.433594 460.226562 527.230469 460.40625 529.039062 C 460.582031 530.847656 460.671875 532.664062 460.671875 534.480469 C 460.671875 536.300781 460.582031 538.113281 460.40625 539.921875 C 460.226562 541.734375 459.960938 543.527344 459.605469 545.3125 C 459.25 547.097656 458.808594 548.859375 458.28125 550.597656 C 457.753906 552.339844 457.140625 554.046875 456.445312 555.730469 C 455.75 557.410156 454.972656 559.050781 454.117188 560.65625 C 453.257812 562.257812 452.324219 563.816406 451.3125 565.328125 C 450.304688 566.839844 449.222656 568.300781 448.070312 569.703125 C 446.914062 571.109375 445.695312 572.457031 444.410156 573.742188 C 443.125 575.027344 441.777344 576.246094 440.371094 577.402344 C 438.964844 578.554688 437.507812 579.636719 435.996094 580.648438 C 434.484375 581.65625 432.925781 582.589844 431.320312 583.449219 C 429.71875 584.304688 428.074219 585.082031 426.394531 585.777344 C 424.714844 586.472656 423.003906 587.085938 421.265625 587.613281 C 419.527344 588.140625 417.761719 588.582031 415.980469 588.9375 C 414.195312 589.292969 412.398438 589.558594 410.589844 589.738281 C 408.78125 589.914062 406.964844 590.003906 405.148438 590.003906 C 403.328125 590.003906 401.515625 589.914062 399.707031 589.738281 C 397.894531 589.558594 396.097656 589.292969 394.316406 588.9375 C 392.53125 588.582031 390.769531 588.140625 389.03125 587.613281 C 387.289062 587.085938 385.578125 586.472656 383.898438 585.777344 C 382.21875 585.082031 380.578125 584.304688 378.972656 583.449219 C 377.371094 582.589844 375.8125 581.65625 374.300781 580.648438 C 372.789062 579.636719 371.328125 578.554688 369.925781 577.402344 C 368.519531 576.246094 367.171875 575.027344 365.886719 573.742188 C 364.601562 572.457031 363.382812 571.109375 362.226562 569.703125 C 361.074219 568.300781 359.992188 566.839844 358.980469 565.328125 C 357.972656 563.816406 357.039062 562.257812 356.179688 560.65625 C 355.324219 559.050781 354.546875 557.410156 353.851562 555.730469 C 353.15625 554.046875 352.542969 552.339844 352.015625 550.597656 C 351.488281 548.859375 351.046875 547.097656 350.691406 545.3125 C 350.335938 543.527344 350.070312 541.734375 349.890625 539.921875 C 349.714844 538.113281 349.625 536.300781 349.625 534.480469 C 349.625 532.664062 349.714844 530.847656 349.890625 529.039062 C 350.070312 527.230469 350.335938 525.433594 350.691406 523.648438 C 351.046875 521.863281 351.488281 520.101562 352.015625 518.363281 C 352.542969 516.621094 353.15625 514.914062 353.851562 513.234375 C 354.546875 511.550781 355.324219 509.910156 356.179688 508.308594 C 357.039062 506.703125 357.972656 505.144531 358.980469 503.632812 C 359.992188 502.121094 361.074219 500.664062 362.226562 499.257812 C 363.382812 497.851562 364.601562 496.503906 365.886719 495.21875 C 367.171875 493.933594 368.519531 492.714844 369.925781 491.558594 C 371.328125 490.40625 372.789062 489.324219 374.300781 488.3125 C 375.8125 487.304688 377.371094 486.371094 378.972656 485.511719 C 380.578125 484.65625 382.21875 483.878906 383.898438 483.183594 C 385.578125 482.488281 387.289062 481.875 389.03125 481.347656 C 390.769531 480.820312 392.53125 480.378906 394.316406 480.023438 C 396.097656 479.667969 397.894531 479.402344 399.707031 479.222656 C 401.515625 479.046875 403.328125 478.957031 405.148438 478.957031 C 406.964844 478.957031 408.78125 479.046875 410.589844 479.222656 C 412.398438 479.402344 414.195312 479.667969 415.980469 480.023438 C 417.761719 480.378906 419.527344 480.820312 421.265625 481.347656 C 423.007812 481.875 424.714844 482.488281 426.394531 483.183594 C 428.074219 483.878906 429.71875 484.65625 431.320312 485.511719 C 432.925781 486.371094 434.484375 487.304688 435.996094 488.3125 C 437.507812 489.324219 438.964844 490.40625 440.371094 491.558594 C 441.777344 492.714844 443.125 493.933594 444.410156 495.21875 Z M 444.410156 495.21875 " fill-opacity="1" fill-rule="nonzero"/></g></g></g><g clip-path="url(#id5)"><g clip-path="url(#id6)"><g clip-path="url(#id7)"><path fill="rgb(100%, 100%, 100%)" d="M 581.824219 436.328125 L 542.5625 475.589844 C 466.777344 399.804688 343.507812 399.8125 267.734375 475.589844 L 228.472656 436.328125 C 325.898438 338.898438 484.398438 338.898438 581.824219 436.328125 Z M 581.824219 436.328125 " fill-opacity="1" fill-rule="nonzero"/></g></g></g><g clip-path="url(#id8)"><g clip-path="url(#id9)"><g clip-path="url(#id10)"><path fill="rgb(100%, 100%, 100%)" d="M 660.347656 357.804688 L 621.085938 397.066406 C 502.015625 277.996094 308.28125 277.996094 189.210938 397.066406 L 149.949219 357.804688 C 290.660156 217.089844 519.632812 217.089844 660.347656 357.804688 Z M 660.347656 357.804688 " fill-opacity="1" fill-rule="nonzero"/></g></g></g></svg>